<svg width="60" height="60" viewBox="0 0 60 60" fill="none" xmlns="http://www.w3.org/2000/svg">
<path fill-rule="evenodd" clip-rule="evenodd" d="M39.813 35.5071V30.957C39.813 30.14 39.153 29.48 38.34 29.48C37.524 29.48 36.863 30.14 36.863 30.957L36.867 36.042C36.867 36.378 36.981 36.7181 37.215 36.9961L41.785 42.394C42.309 43.015 43.238 43.0929 43.86 42.5659C44.477 42.0419 44.555 41.1131 44.031 40.4961L39.813 35.5071ZM38.34 46.304C35.504 46.304 32.938 45.156 31.082 43.3C29.227 41.445 28.078 38.878 28.078 36.042C28.078 30.374 32.672 25.781 38.34 25.781C44.008 25.781 48.6021 30.374 48.6021 36.042C48.6021 41.71 44.008 46.304 38.34 46.304ZM25.41 28.25H27.676C26.074 30.433 25.129 33.128 25.129 36.042C25.129 38.8 25.973 41.3551 27.418 43.4761H17.9771C16.9381 43.4761 16.0941 42.632 16.0941 41.593V22.2959H43.801V24.0149C42.137 23.2569 40.289 22.835 38.34 22.835C34.692 22.835 31.391 24.3121 29 26.7031C28.82 26.8821 28.6451 27.0661 28.4771 27.2571V25.179C28.4771 24.921 28.266 24.707 28.004 24.707H25.41C25.149 24.707 24.938 24.921 24.938 25.179V27.7771C24.938 28.0351 25.149 28.25 25.41 28.25ZM16.0941 17.6479C16.0941 16.6129 16.9381 15.769 17.9771 15.769H22.035V16.562C22.035 17.324 22.656 17.9451 23.418 17.9451C24.184 17.9451 24.801 17.328 24.801 16.562V15.769H35.098V16.562C35.098 17.324 35.715 17.9451 36.481 17.9451C37.242 17.9451 37.86 17.328 37.86 16.562L37.863 15.769H41.922C42.961 15.769 43.801 16.6131 43.801 17.6521V19.531H16.0941V17.6479ZM46.567 25.71V17.6479C46.567 15.0819 44.488 13 41.922 13H37.863V12.207C37.863 11.445 37.242 10.824 36.481 10.824C35.715 10.824 35.098 11.445 35.098 12.207V13H24.801V12.207C24.801 11.445 24.184 10.824 23.418 10.824C22.656 10.824 22.035 11.445 22.035 12.207V13H17.9771C15.4101 13 13.328 15.0821 13.328 17.6521L13.332 41.593C13.332 44.16 15.4101 46.2419 17.9771 46.2419H29.942C32.223 48.1209 35.149 49.2529 38.34 49.2529C45.633 49.2529 51.547 43.339 51.547 36.042C51.547 32.003 49.719 28.222 46.567 25.71ZM21.797 24.707H19.199C18.942 24.707 18.7271 24.921 18.7271 25.179V27.7771C18.7271 28.0351 18.942 28.25 19.199 28.25H21.797C22.055 28.25 22.27 28.0351 22.27 27.7771V25.179C22.27 24.921 22.055 24.707 21.797 24.707ZM21.797 37.124H19.199C18.942 37.124 18.7271 37.3389 18.7271 37.5969V40.1951C18.7271 40.4531 18.942 40.667 19.199 40.667H21.797C22.055 40.667 22.27 40.4531 22.27 40.1951V37.5969C22.27 37.3389 22.055 37.124 21.797 37.124ZM21.797 30.917H19.199C18.942 30.917 18.7271 31.128 18.7271 31.386V33.9841C18.7271 34.2461 18.942 34.457 19.199 34.457H21.797C22.055 34.457 22.27 34.2461 22.27 33.9841V31.386C22.27 31.128 22.055 30.917 21.797 30.917ZM30 57.156C15 57.156 2.84406 45 2.84406 30C2.84406 15.003 15 2.84692 30 2.84692C44.996 2.84692 57.153 15.003 57.153 30C57.153 45 44.996 57.156 30 57.156ZM30 0C13.43 0 0 13.433 0 30C0 46.57 13.43 60 30 60C46.567 60 60 46.57 60 30C60 13.433 46.567 0 30 0Z" fill="white"/>
</svg>
