<svg width="64" height="64" viewBox="0 0 64 64" fill="none" xmlns="http://www.w3.org/2000/svg">
<g clip-path="url(#clip0_73_302)">
<path fill-rule="evenodd" clip-rule="evenodd" d="M62.9636 32C62.9636 49.1004 49.0962 62.9678 31.9958 62.9678C14.8913 62.9678 1.02808 49.1004 1.02808 32C1.02808 14.8955 14.8913 1.03229 31.9958 1.03229C49.0962 1.03229 62.9636 14.8955 62.9636 32Z" fill="#E60017" stroke="white" stroke-width="2.06452" stroke-miterlimit="10"/>
<path d="M48.935 41.6654C48.584 41.6654 48.294 41.7418 48.2662 41.8471C48.2218 41.9555 48.1732 43.3831 48.1608 45.012L48.1123 47.9756L45.0404 48.02L41.9549 48.053V49.875H49.1322L49.572 49.4363L50.0159 48.9965V45.4238C50.0159 41.4517 50.0767 41.6654 48.935 41.6654ZM19.0522 48.02L16.1775 47.9756L16.133 44.9201C16.1041 41.8956 16.0886 41.847 15.7542 41.7583C15.2979 41.6375 14.5082 41.6376 14.3864 41.7748C14.3224 41.8192 14.278 43.5369 14.278 45.557V49.2546L14.6734 49.557C15.0523 49.8636 15.2659 49.875 18.5516 49.875C21.8218 49.875 22.0355 49.8636 22.1851 49.589C22.3988 49.1782 22.3823 48.4318 22.1408 48.2223C22.0035 48.1294 20.8628 48.0365 19.0522 48.02ZM32.1165 31.9642C31.5683 32.5402 30.5361 32.5568 29.8662 32.0086C29.4719 31.6897 29.4109 31.5369 29.4109 30.8835C29.4109 29.7418 30.0798 29.1338 31.2174 29.2587C31.6448 29.3031 31.9193 29.4558 32.1608 29.7583C32.6769 30.3838 32.6646 31.4037 32.1165 31.9642ZM29.5606 27.859C28.133 28.5888 27.6613 29.3795 27.6613 30.9764C27.6768 32.0086 27.7211 32.2378 28.0845 32.7704C28.3136 33.1049 28.7699 33.5611 29.1044 33.7862C29.637 34.1537 29.8662 34.2022 30.8985 34.2135C31.7501 34.2135 32.1929 34.1372 32.4954 33.9555C34.1367 32.9356 34.7622 31.2179 34.0603 29.6376C33.2737 27.8755 31.141 27.0362 29.5606 27.859ZM38.5959 33.2587C37.6648 37.1338 34.0768 39.3108 30.1686 38.3508C27.9348 37.8027 26.0034 35.7949 25.4388 33.4559C24.2538 28.5289 28.7864 24.0241 33.6205 25.3031C37.1488 26.23 39.399 29.8347 38.5959 33.2587ZM36.1775 24.4514C34.5042 23.6452 34.1975 23.5689 32.5727 23.4925C31.6613 23.4636 30.5805 23.4925 30.1686 23.5524C29.379 23.6773 29.3025 23.7061 28.1165 24.3307C26.2615 25.3031 25.028 26.6852 23.9792 28.9676C23.6768 29.6375 23.6447 29.972 23.6447 31.8548C23.6447 33.7304 23.6892 34.0772 23.9792 34.7018C24.1609 35.0971 24.3147 35.4594 24.3147 35.508C24.3147 35.734 25.4388 37.27 26.0034 37.8512C26.7776 38.6254 27.9348 39.3676 29.1044 39.8394C29.9271 40.1779 30.2295 40.2223 32.0721 40.2223C34.213 40.2058 34.5041 40.1459 36.1443 39.2458C37.3304 38.6089 38.7457 37.1782 39.4146 35.9642C40.2662 34.3993 40.3425 34.0772 40.3425 31.8548C40.3425 29.6055 40.3426 29.6375 39.3991 27.6732C39.0677 26.9919 36.8587 24.7869 36.1775 24.4514ZM41.7702 38.4437C41.7578 38.5046 41.318 38.8391 40.8143 39.1735C37.1044 41.6375 33.5606 42.4716 29.4831 41.8305C28.7699 41.7263 28.133 41.5725 28.0401 41.5168C27.9637 41.4517 27.6448 41.3475 27.3547 41.2866C26.6404 41.1338 24.3146 40.0086 23.1606 39.2345C21.1807 37.94 18.2336 35.0527 16.9392 33.1338C16.6976 32.7704 16.4354 32.436 16.3745 32.4194C16.2094 32.343 16.2259 31.4925 16.4065 31.2788C16.484 31.1735 16.8463 30.7183 17.1972 30.2579C18.278 28.8468 19.5395 27.4925 21.1209 26.0649C21.9436 25.3186 24.0401 23.8755 24.2858 23.8755C24.3911 23.8755 24.4675 23.827 24.4675 23.7506C24.4675 23.6618 25.1652 23.3108 26.5196 22.7503C27.5074 22.3395 28.5882 22.0484 29.7299 21.8832C30.3823 21.7903 30.9593 21.6861 31.0037 21.6376C31.1121 21.5323 33.1487 21.6861 34.5041 21.8956C36.9959 22.291 39.5198 23.4316 41.9549 25.2907C43.2494 26.2786 45.6329 28.6941 46.6404 30.0329C47.0647 30.6089 47.492 31.1735 47.5808 31.2788C47.7656 31.4925 47.7944 32.343 47.6282 32.4194C47.5518 32.436 47.3382 32.7095 47.1245 33.012C46.0283 34.6089 42.4267 38.3188 41.9839 38.3188C41.8951 38.3188 41.8022 38.3797 41.7702 38.4437ZM49.7092 31.8548C49.7092 30.7018 45.9839 26.23 43.2494 24.1015C41.9715 23.1136 40.2817 22.0483 39.9916 22.0483C39.9028 22.0483 39.8264 21.9885 39.8264 21.8956C39.8264 21.8192 39.6448 21.6974 39.4146 21.653C39.173 21.5931 38.915 21.5003 38.8386 21.428C38.4556 21.1369 36.2218 20.4515 34.883 20.2265C33.6649 20.0241 31.7985 19.9683 30.246 20.0726C29.4553 20.1335 28.4675 20.2987 28.0721 20.436C27.6768 20.5733 27.2493 20.6817 27.1286 20.6817C26.9314 20.6817 26.6249 20.8024 25.3026 21.3671C24.3746 21.7748 23.3258 22.2786 23.2494 22.3673C23.205 22.4158 22.8984 22.613 22.5681 22.8112C21.7454 23.2943 19.6613 24.9232 18.915 25.6695C16.5759 27.9642 14.278 31.0362 14.278 31.8548C14.278 32.3152 14.9026 33.3351 16.1775 34.9877C17.2737 36.404 18.0355 37.2257 19.8306 38.867C20.8948 39.8393 23.6004 41.6654 23.9957 41.6654C24.0886 41.6654 24.1608 41.7263 24.1608 41.8192C24.1608 41.8956 24.3467 42.0164 24.5882 42.0608C24.8184 42.1217 25.0765 42.2136 25.1529 42.291C25.4718 42.5325 27.2938 43.1096 28.9516 43.4925C29.7455 43.6732 34.246 43.6732 35.0357 43.4925C38.3183 42.7462 40.5841 41.6654 43.2494 39.5967C45.9549 37.4837 49.7092 33.0006 49.7092 31.8548ZM41.8786 15.5854L44.7978 15.6618C46.8984 15.7217 47.7779 15.7991 47.9152 15.9353C48.0525 16.0726 48.1289 16.9562 48.1888 19.0528L48.2662 21.972H49.6328L49.6814 18.2621C49.7092 15.6618 49.6649 14.4922 49.5441 14.3549C49.2861 14.0329 41.9838 14.0483 41.8631 14.3549C41.8187 14.4757 41.8022 14.7947 41.8342 15.0848L41.8786 15.5854ZM15.6613 22.0329C15.7377 21.9111 15.7985 20.5124 15.7985 18.899C15.7985 16.7426 15.8461 15.9519 15.9957 15.859C16.0887 15.7991 17.5194 15.7103 19.1452 15.6618L22.1088 15.5854V14.2176L18.3544 14.1691L14.6124 14.1413L14.2935 14.5366C13.9921 14.9196 13.9756 15.1291 13.9756 18.4158C13.9756 20.4071 14.0355 21.9111 14.1129 21.972C14.4753 22.1857 15.5405 22.2301 15.6613 22.0329Z" fill="white"/>
</g>
<defs>
<clipPath id="clip0_73_302">
<rect width="64" height="64" fill="white"/>
</clipPath>
</defs>
</svg>
