<svg width="64" height="64" viewBox="0 0 64 64" fill="none" xmlns="http://www.w3.org/2000/svg">
<path fill-rule="evenodd" clip-rule="evenodd" d="M54.754 30.2458H52.945C52.055 19.4799 43.031 11.0149 32.035 11.0149C20.449 11.0149 11.0551 20.414 11.0551 32C11.0551 43.585 20.445 52.98 32.035 52.98V50.1829H32.027C21.977 50.1829 13.836 42.0389 13.836 31.9919C13.836 21.9449 21.977 13.8 32.027 13.8C41.488 13.8 49.258 21.0188 50.137 30.2458H48.371C47.504 30.2458 47.641 31.4609 47.879 31.7029L50.942 35.7529C51.223 36.0389 51.68 36.0389 51.961 35.7529L55.024 31.707C55.332 31.39 55.719 30.2458 54.754 30.2458ZM33.473 31.4639V21.718C33.473 20.906 32.813 20.2458 32 20.2458C31.184 20.2458 30.524 20.906 30.524 21.718L30.527 32C30.527 32.335 30.641 32.671 30.875 32.949L40.11 43.8589C40.633 44.4799 41.5631 44.558 42.1801 44.031C42.8011 43.507 42.879 42.5819 42.356 41.9609L33.473 31.4639ZM32 59.1519C17 59.1519 4.84406 46.996 4.84406 32C4.84406 17.003 17 4.84302 32 4.84302C46.996 4.84302 59.153 17.003 59.153 32C59.153 46.996 46.996 59.1519 32 59.1519ZM32 2C15.43 2 2 15.433 2 32C2 48.566 15.43 62 32 62C48.567 62 62 48.566 62 32C62 15.433 48.567 2 32 2Z" fill="white"/>
</svg>
