<svg width="64" height="64" viewBox="0 0 64 64" fill="none" xmlns="http://www.w3.org/2000/svg">
<path fill-rule="evenodd" clip-rule="evenodd" d="M30.996 44.2781C30.223 45.0511 30.223 46.301 30.996 47.075C31.766 47.844 33.016 47.844 33.789 47.075C34.563 46.301 34.563 45.0511 33.789 44.2781C33.016 43.5081 31.766 43.5081 30.996 44.2781ZM32.9691 33.8789L43.3051 23.543C43.8561 22.992 43.8521 22.1059 43.3051 21.5549C42.7541 21.0079 41.867 21.0079 41.317 21.5549L31.9771 30.895L27.856 26.7739C27.305 26.2229 26.414 26.2269 25.867 26.7739C25.32 27.3249 25.32 28.2111 25.867 28.7581L30.985 33.875C31.535 34.426 32.4221 34.4259 32.9691 33.8789ZM42.063 39.512C40.973 39.512 40.086 40.399 40.086 41.489C40.086 42.582 40.973 43.4648 42.063 43.4648C43.156 43.4648 44.039 42.582 44.039 41.489C44.039 40.399 43.156 39.512 42.063 39.512ZM47.34 30.293C46.57 29.52 45.317 29.52 44.547 30.293C43.774 31.063 43.774 32.3169 44.547 33.0859C45.317 33.8599 46.57 33.8599 47.34 33.0859C48.113 32.3169 48.113 31.063 47.34 30.293ZM22.285 24.301C23.375 24.301 24.262 23.418 24.262 22.325C24.262 21.235 23.375 20.3479 22.285 20.3479C21.195 20.3479 20.309 21.235 20.309 22.325C20.309 23.418 21.195 24.301 22.285 24.301ZM22.5941 39.821C21.5001 39.821 20.617 40.7069 20.617 41.7969C20.617 42.8869 21.5001 43.7739 22.5941 43.7739C23.6841 43.7739 24.57 42.8869 24.57 41.7969C24.57 40.7069 23.6841 39.821 22.5941 39.821ZM33.356 19.5349C34.125 18.7659 34.125 17.5119 33.356 16.7419C32.582 15.9689 31.332 15.9689 30.559 16.7419C29.789 17.5119 29.789 18.7659 30.559 19.5349C31.332 20.3089 32.582 20.3089 33.356 19.5349ZM17.0081 30.7271C16.2381 31.5001 16.2381 32.7499 17.0081 33.5239C17.7811 34.2929 19.0311 34.2929 19.8051 33.5239C20.5741 32.7499 20.5741 31.5001 19.8051 30.7271C19.0311 29.9571 17.7811 29.9571 17.0081 30.7271ZM45.07 45.071C37.852 52.289 26.1491 52.289 18.9301 45.071C11.7111 37.852 11.7111 26.1489 18.9301 18.9299C26.1491 11.7149 37.852 11.7149 45.07 18.9299C52.285 26.1489 52.285 37.852 45.07 45.071ZM47.0551 16.946C38.7381 8.63305 25.258 8.62904 16.945 16.946C8.62901 25.262 8.62901 38.7419 16.945 47.0549C25.258 55.3709 38.7381 55.3709 47.0551 47.0549C55.3711 38.7419 55.3671 25.262 47.0551 16.946ZM32 59.157C17 59.157 4.84406 47 4.84406 32C4.84406 17.004 17 4.8479 32 4.8479C46.996 4.8479 59.153 17.004 59.153 32C59.153 47 46.996 59.157 32 59.157ZM32 2C15.43 2 2 15.434 2 32C2 48.571 15.43 62 32 62C48.567 62 62 48.571 62 32C62 15.434 48.567 2 32 2Z" fill="white"/>
</svg>
