<svg width="64" height="64" viewBox="0 0 64 64" fill="none" xmlns="http://www.w3.org/2000/svg">
<path d="M33.5161 31.5278V26.4138C33.5161 25.5978 32.856 24.938 32.043 24.938C31.231 24.938 30.57 25.5978 30.57 26.4138V32.063C30.57 32.399 30.688 32.735 30.922 33.012L35.992 39.0039C36.516 39.6249 37.445 39.7029 38.067 39.1799C38.684 38.6529 38.762 37.727 38.238 37.106L33.5161 31.5278ZM32.043 43.614C25.664 43.614 20.492 38.442 20.492 32.063C20.492 25.68 25.664 20.5078 32.043 20.5078C38.422 20.5078 43.5941 25.68 43.5941 32.063C43.5941 38.442 38.422 43.614 32.043 43.614ZM37.027 48.7268H27.059L26.539 45.481C28.235 46.176 30.094 46.563 32.043 46.563C33.992 46.563 35.852 46.176 37.547 45.481L37.027 48.7268ZM27.059 15.395H37.027L37.547 18.645C35.852 17.946 33.992 17.563 32.043 17.563C30.094 17.563 28.235 17.946 26.539 18.645L27.059 15.395ZM40.824 20.5239L39.746 13.8088C39.692 13.0468 39.055 12.4458 38.277 12.4458L25.809 12.4529C25.098 12.4499 24.473 12.9689 24.356 13.6919L23.2581 20.5239C19.6561 23.2699 17.543 27.516 17.543 32.063C17.543 36.606 19.6561 40.8519 23.2581 43.5979L24.356 50.4299C24.473 51.1529 25.098 51.6719 25.809 51.6719L38.277 51.6758C39.055 51.6758 39.692 51.075 39.746 50.313L40.824 43.5979C44.43 40.8519 46.543 36.606 46.543 32.063C46.543 27.516 44.43 23.2699 40.824 20.5239ZM32 59.1528C17 59.1528 4.84406 46.996 4.84406 32C4.84406 17.004 17 4.84399 32 4.84399C46.996 4.84399 59.153 17.004 59.153 32C59.153 46.996 46.996 59.1528 32 59.1528ZM32 2C15.43 2 2 15.434 2 32C2 48.567 15.43 62 32 62C48.567 62 62 48.567 62 32C62 15.434 48.567 2 32 2Z" fill="white"/>
</svg>
